<svg xmlns="http://www.w3.org/2000/svg" width="463.294" height="106.787" viewBox="0 0 122.58 28.254"><path fill="#fff" d="M0 0h122.58v28.254H0z"/><g stroke-linecap="round" stroke-linejoin="round" stroke-width=".5"><g fill="#3d3846" font-family="'Open Sans'" font-size="3.528" font-weight="bold" text-anchor="middle"><text xml:space="preserve" x="75.985" y="133.545" style="line-height:1" transform="translate(-47.57 -108.716)"><tspan x="75.985" y="133.545">menores</tspan></text><text xml:space="preserve" x="108.875" y="133.498" style="line-height:1" transform="translate(-47.57 -108.716)"><tspan x="108.875" y="133.498">igual</tspan></text><text xml:space="preserve" x="141.602" y="133.905" style="line-height:1" transform="translate(-47.57 -108.716)"><tspan x="141.602" y="133.905">maiores</tspan></text><text xml:space="preserve" x="108.806" y="115.158" style="line-height:1" transform="translate(-47.57 -108.716)"><tspan x="108.806" y="115.158">pivô</tspan></text></g><g fill="none" stroke="#3d3846" transform="translate(-47.57 -108.716)"><rect width="11.6" height="11.6" x="52.856" y="117.27" rx="0" ry="0"/><rect width="11.6" height="11.6" x="64.456" y="117.27" rx="0" ry="0"/><rect width="11.6" height="11.6" x="76.056" y="117.27" rx="0" ry="0"/><rect width="11.6" height="11.6" x="87.656" y="117.27" rx="0" ry="0"/></g><g fill="#3d3846" font-family="'Open Sans'" font-size="3.528" font-weight="bold" text-anchor="middle"><text xml:space="preserve" x="58.645" y="124.351" style="line-height:1" transform="translate(-47.57 -108.716)"><tspan x="58.645" y="124.351">2</tspan></text><text xml:space="preserve" x="70.245" y="124.351" style="line-height:1" transform="translate(-47.57 -108.716)"><tspan x="70.245" y="124.351">0</tspan></text><text xml:space="preserve" x="81.845" y="124.351" style="line-height:1" transform="translate(-47.57 -108.716)"><tspan x="81.845" y="124.351">-1</tspan></text><text xml:space="preserve" x="93.445" y="124.351" style="line-height:1" transform="translate(-47.57 -108.716)"><tspan x="93.445" y="124.351">5</tspan></text></g><g transform="translate(-48.037 -108.716)"><rect width="11.6" height="11.6" x="103.53" y="117.27" fill="#99c1f1" stroke="#3d3846" rx="0" ry="0"/><text xml:space="preserve" x="109.32" y="124.351" fill="#3d3846" font-family="'Open Sans'" font-size="3.528" font-weight="bold" style="line-height:1" text-anchor="middle"><tspan x="109.32" y="124.351">8</tspan></text></g><g fill="none" stroke="#3d3846" transform="translate(-49.157 -108.716)"><rect width="11.6" height="11.6" x="120.06" y="117.27" rx="0" ry="0"/><rect width="11.6" height="11.6" x="131.66" y="117.27" rx="0" ry="0"/><rect width="11.6" height="11.6" x="143.26" y="117.27" rx="0" ry="0"/><rect width="11.6" height="11.6" x="154.86" y="117.27" rx="0" ry="0"/></g><g fill="#3d3846" font-family="'Open Sans'" font-size="3.528" font-weight="bold" text-anchor="middle"><text xml:space="preserve" x="125.849" y="124.351" style="line-height:1" transform="translate(-49.157 -108.716)"><tspan x="125.849" y="124.351">10</tspan></text><text xml:space="preserve" x="137.449" y="124.351" style="line-height:1" transform="translate(-49.157 -108.716)"><tspan x="137.449" y="124.351">9</tspan></text><text xml:space="preserve" x="149.049" y="124.351" style="line-height:1" transform="translate(-49.157 -108.716)"><tspan x="149.049" y="124.351">18</tspan></text><text xml:space="preserve" x="160.649" y="124.351" style="line-height:1" transform="translate(-49.157 -108.716)"><tspan x="160.649" y="124.351">9</tspan></text></g></g></svg>